 <svg xmlns="http://www.w3.org/2000/svg" width="24" height="24" viewBox="0 0 24 24">
      <g id="Group_25445" data-name="Group 25445" transform="translate(-3509 119)">
        <rect id="Rectangle_7546" data-name="Rectangle 7546" width="24" height="24" transform="translate(3509 -119)" fill="none" />
        <g id="noun_face_cream_3294605" data-name="noun_face cream_3294605" transform="translate(3510.994 -116.882)">
          <g id="Group_12738" data-name="Group 12738" transform="translate(0.006 2.882)">
            <path id="Path_13321" data-name="Path 13321" d="M8.03,11.9c-.193.209-1.894,2.08-1.894,3.172a2.129,2.129,0,0,0,4.259,0c0-1.094-1.7-2.963-1.894-3.172a.331.331,0,0,0-.47,0Zm.235,4.661a1.489,1.489,0,0,1-1.492-1.484,6,6,0,0,1,1.487-2.473,6.009,6.009,0,0,1,1.492,2.473A1.489,1.489,0,0,1,8.265,16.563Z" transform="translate(-1.223 -4.652)" fill="#00aeef" stroke="#00aeef" strokeWidth="0.5" />
            <path id="Path_13322" data-name="Path 13322" d="M19.1,14.641,16.473,8.1a1.809,1.809,0,0,0-2.351-1l-1.192.479A.321.321,0,0,0,12.752,8l.021.053a1.874,1.874,0,0,0-.408-.1V6.591a.321.321,0,0,0-.32-.32H11.6a1.616,1.616,0,0,0-1.218-.824l-.165-.02A2.8,2.8,0,0,0,7.292,2.885a.317.317,0,0,0-.251.077.321.321,0,0,0-.113.235c-.016.934-1.069,1.5-1.357,1.636l-.69-.087a2.5,2.5,0,0,0-2.59,1.524h-.28a.32.32,0,0,0-.32.32V7.948A1.9,1.9,0,0,0,.006,9.831V15.59A1.909,1.909,0,0,0,1.913,17.5H12.1a1.909,1.909,0,0,0,1.908-1.907V11.116L16.5,17.294a.322.322,0,0,0,.172.175.33.33,0,0,0,.126.026.32.32,0,0,0,.12-.024l1.181-.479a1.809,1.809,0,0,0,1-2.351ZM11.723,7.925H2.337V6.907h9.386ZM7.539,3.553A2.111,2.111,0,0,1,9.564,5.342L6.578,4.963a2.447,2.447,0,0,0,.958-1.41ZM4.8,5.384l.792.1h.019l4.691.6a1.3,1.3,0,0,1,.49.189H3.022A1.751,1.751,0,0,1,4.8,5.384ZM13.363,15.59A1.267,1.267,0,0,1,12.1,16.855H1.913A1.267,1.267,0,0,1,.648,15.59V9.831A1.267,1.267,0,0,1,1.913,8.566H12.1a1.267,1.267,0,0,1,1.265,1.265Zm5.134.182a1.16,1.16,0,0,1-.638.624l-.9.361-3.5-8.7.895-.36a1.166,1.166,0,0,1,1.517.647L18.5,14.879a1.157,1.157,0,0,1-.009.892Z" transform="translate(-0.006 -2.882)" fill="#00aeef" stroke="#00aeef" strokeWidth="0.5" />
          </g>
        </g>
      </g>
    </svg>