  <svg xmlns="http://www.w3.org/2000/svg" width="24" height="24" viewBox="0 0 24 24">
      <g id="Group_25444" data-name="Group 25444" transform="translate(-3509 160)">
        <rect id="Rectangle_7547" data-name="Rectangle 7547" width="24" height="24" transform="translate(3509 -160)" fill="none" />
        <g id="dryer" transform="translate(3511.046 -186.694)">
          <g id="Group_12740" data-name="Group 12740" transform="translate(3.45 31.414)">
            <g id="Group_12739" data-name="Group 12739" transform="translate(0)">
              <path id="Path_13323" data-name="Path 13323" d="M66.97,91.93a2.979,2.979,0,1,0,2.979,2.979A2.979,2.979,0,0,0,66.97,91.93Zm0,5.107A2.128,2.128,0,1,1,69.1,94.909,2.128,2.128,0,0,1,66.97,97.037Z" transform="translate(-63.991 -91.93)" fill="#00aeef" />
            </g>
          </g>
          <g id="Group_12742" data-name="Group 12742" transform="translate(0.368 28.008)">
            <g id="Group_12741" data-name="Group 12741" transform="translate(0 0)">
              <path id="Path_13324" data-name="Path 13324" d="M18.05,28.393a.392.392,0,0,0-.18.043l-3.11,1.6-4.662-.4a5.889,5.889,0,0,0-6.578-1.1,6.239,6.239,0,0,0,.344,11.388L5.218,46.2a.4.4,0,0,0,.392.322H7.163a1.608,1.608,0,0,1-1.547,1.236H3.764a2.359,2.359,0,0,0-1.239.352L1,49.053a.418.418,0,0,0-.147.563.4.4,0,0,0,.548.151l.012-.008,1.529-.943a1.567,1.567,0,0,1,.825-.235H5.61a2.429,2.429,0,0,0,2.37-2.059H9.627a.4.4,0,0,0,.315-.155.42.42,0,0,0,.077-.35l-.695-3.2h.7a.407.407,0,0,0,.4-.412V40.76a.407.407,0,0,0-.4-.412H8.789l-.135-.632a6.191,6.191,0,0,0,3.278-4.48l2.829-.241,3.108,1.6a.392.392,0,0,0,.4-.02.415.415,0,0,0,.186-.359V28.8A.406.406,0,0,0,18.05,28.393ZM9.627,41.167v.824H9.145l-.178-.824Zm-.5,4.526H5.936L4.747,40.2A5.838,5.838,0,0,0,7.9,40.027Zm2.068-10.829a.446.446,0,0,0-.022.064,5.585,5.585,0,0,1-6.25,4.857A5.682,5.682,0,0,1,.158,33.393a5.589,5.589,0,0,1,6.2-4.929A5.678,5.678,0,0,1,11.188,34.8a.425.425,0,0,0,.006.062Zm3.242-.668-2.412.206v-.239a6.232,6.232,0,0,0-1.141-3.631l3.557.3Zm3.209,1.361-2.4-1.234V30.709l2.407-1.236Z" transform="translate(0.178 -27.98)" fill="#00aeef" stroke="#00aeef" strokeWidth="0.4" />
              <g id="Ellipse_422" data-name="Ellipse 422" transform="translate(-0.414 -0.313)" fill="none" stroke="#00aeef" strokeWidth="1.2">
                <circle cx="6.5" cy="6.5" r="6.5" stroke="none" />
                <circle cx="6.5" cy="6.5" r="5.9" fill="none" />
              </g>
            </g>
          </g>
        </g>
      </g>
    </svg>