<svg width="20" height="20" viewBox="0 0 26 26" fill="none" xmlns="http://www.w3.org/2000/svg">
      <path d="M24.1627 3.7938C24.9037 4.55252 25.2345 5.62253 25.0497 6.66835C24.8628 7.7266 24.1714 8.62732 23.1974 9.08126L18.3993 11.3207L4.3373 24.5435C3.81798 25.0339 3.07983 25.2166 2.3917 25.0251C2.3917 25.0251 2.39169 25.0251 2.39169 25.0251L2.41849 24.9287C1.76432 24.7469 1.25287 24.2355 1.07099 23.5812L24.1627 3.7938ZM24.1627 3.7938L24.1623 3.78739L24.1357 3.76077L22.2388 1.86391L22.2388 1.86388C21.4785 1.10428 20.3956 0.763334 19.3373 0.950273C18.2791 1.1372 17.3784 1.82851 16.9242 2.80247L24.1627 3.7938ZM24.2198 6.55125C24.0773 7.3292 23.5652 7.99011 22.8456 8.32168L22.8453 8.32184L18.2456 10.4624L17.8694 10.0905L21.1339 8.48503C21.134 8.48495 21.1342 8.48486 21.1344 8.48478C21.2651 8.4217 21.3196 8.26483 21.2569 8.1343C21.1941 8.0033 21.037 7.94841 20.9063 8.01125L20.9054 8.01171L17.4871 9.70043L17.0771 9.29057L20.6445 5.72902L20.6447 5.72884C20.7458 5.62735 20.7458 5.46303 20.6447 5.36153L20.6445 5.36142C20.5431 5.26002 20.3785 5.25979 20.2771 5.36136L24.2198 6.55125ZM24.2198 6.55125L24.2197 6.55114L24.225 6.52161C24.3658 5.73056 24.1048 4.92133 23.5285 4.36154L23.5275 4.36053L21.6309 2.46393C21.6308 2.46388 21.6308 2.46382 21.6307 2.46377C21.0645 1.90204 20.2607 1.65039 19.4753 1.78891C18.6898 1.92762 18.0205 2.43916 17.6809 3.16081L15.5349 7.75981L15.9089 8.13158L17.5121 4.86041C17.5122 4.86029 17.5122 4.86017 17.5123 4.86006C17.5752 4.72948 17.7318 4.67433 17.8626 4.73711C17.9935 4.79992 18.0487 4.95693 17.9859 5.08784L17.9855 5.08877L16.2993 8.51281L16.7095 8.92304L20.2769 5.36153L24.2198 6.55125ZM16.9242 2.80257L14.679 7.60353L16.9242 2.80257ZM3.76262 23.9343L3.76221 23.9347C3.53619 24.1497 3.23481 24.2678 2.92282 24.2633C2.61077 24.2586 2.31297 24.132 2.09336 23.9103L2.09261 23.9096C1.87052 23.6901 1.74318 23.3927 1.73827 23.0806L1.73827 23.0805C1.73317 22.7685 1.85071 22.4669 2.06536 22.2408L2.06568 22.2404L11.2623 12.4611L13.5388 14.7377L3.76262 23.9343ZM14.1482 14.1629L11.8368 11.8514L15.0586 8.44353L17.5727 10.941L14.1482 14.1629Z" fill="#00AFEF" stroke="#00AFEF" strokeWidth="0.2" />
    </svg>