 <svg xmlns="http://www.w3.org/2000/svg" width="24" height="24" viewBox="0 0 24 24">
      <g id="Group_25446" data-name="Group 25446" transform="translate(-3509 85)">
        <rect id="Rectangle_7548" data-name="Rectangle 7548" width="24" height="24" transform="translate(3509 -85)" fill="none" />
        <g id="noun_liquid_soap_2212237_1_" data-name="noun_liquid soap_2212237(1)" transform="translate(3490.888 -92.975)">
          <path id="Path_13320" data-name="Path 13320" d="M35.526,17.093H32.465L32.3,15.4v-.02a.917.917,0,0,0-.882-.93h-.089V12.981h.208a.63.63,0,0,0,.625-.625V11.6a.63.63,0,0,0-.625-.625H26a.63.63,0,0,0-.625.625.378.378,0,0,0,.011.092l.156.625a.881.881,0,0,0,.856.668h2.047v1.47h-.09a.917.917,0,0,0-.882.93l-.165,1.71h-3.06a1.135,1.135,0,0,0-1.134,1.134V29.752a.883.883,0,0,0,.882.882H35.777a.883.883,0,0,0,.882-.882V18.227a1.135,1.135,0,0,0-1.133-1.134Zm-9.135-4.866a.126.126,0,0,1-.122-.1l-.1-.409h5.247v.5Zm4.188.756v1.47H29.193V12.981Zm-2.355,2.457V15.4c0-.11.067-.194.126-.194h3.067c.059,0,.126.082.126.194v.036l.159,1.654H28.065ZM35.9,29.753a.126.126,0,0,1-.126.126H23.993a.126.126,0,0,1-.126-.126V18.227a.378.378,0,0,1,.378-.378h11.28a.378.378,0,0,1,.378.378V29.752Zm-2.52-9.542h-7a.63.63,0,0,0-.625.625v6.044a.625.625,0,0,0,.625.625h7a.625.625,0,0,0,.625-.625V20.837a.625.625,0,0,0-.625-.625Zm-.126,6.55H26.512V20.967h6.745Z" transform="translate(0 0)" fill="#00aeef" stroke="#00aeef" strokeWidth="0.4" />
        </g>
      </g>
    </svg>