<svg width="20" height="20" viewBox="0 0 23 23" fill="none" xmlns="http://www.w3.org/2000/svg">
      <path d="M0.0386011 20.8629C0.0386011 20.8629 -1.16784 9.23802 9.90859 6.05759C22.5201 2.54834 20.327 -0.303226 21.643 0.0259038C22.7396 0.355027 25.3716 10.8832 17.9144 18.2308C10.3471 25.6885 0.14842 21.9594 0.0388618 20.8627L0.0386011 20.8629ZM10.2373 7.15447C1.02527 9.67691 1.02527 18.6698 1.13483 20.424C14.0757 25.7977 24.6037 12.9663 21.3137 1.78026C20.2171 2.9867 17.3658 5.18001 10.2373 7.15395V7.15447Z" fill="#00AFEF" />
      <path d="M0.915752 21.1923C0.257753 21.5214 -0.18087 20.5343 0.47709 20.2052C0.47709 20.2052 12.6504 14.941 17.8048 6.82607C18.134 6.27761 19.1208 6.82607 18.6822 7.48407C13.3085 15.8189 0.916169 21.1925 0.916169 21.1925L0.915752 21.1923Z" fill="#00AFEF" />
    </svg>